<mxfile host="app.diagrams.net" modified="2023-03-29T18:15:44.271Z" agent="Mozilla/5.0 (Windows NT 10.0; Win64; x64) AppleWebKit/537.36 (KHTML, like Gecko) Chrome/111.0.0.0 Safari/537.36 Edg/111.0.1661.54" etag="LPwh5yj9GUHBpfUT-l64" version="21.1.2" type="github">
  <diagram name="Página-1" id="rkHG6nmuOjkpt8-TUzvK">
    <mxGraphModel dx="794" dy="477" grid="1" gridSize="10" guides="1" tooltips="1" connect="1" arrows="1" fold="1" page="1" pageScale="1" pageWidth="827" pageHeight="1169" math="0" shadow="0">
      <root>
        <mxCell id="0" />
        <mxCell id="1" parent="0" />
        <mxCell id="XnEvQe8ai3ZGjiJY6H-x-5" value="Cadastrar Patrimônio&amp;nbsp;" style="shape=rect;html=1;verticalAlign=top;fontStyle=1;whiteSpace=wrap;align=center;fillColor=#f5f5f5;fontColor=#333333;strokeColor=#666666;" parent="1" vertex="1">
          <mxGeometry x="193" y="210" width="430" height="610" as="geometry" />
        </mxCell>
        <mxCell id="XnEvQe8ai3ZGjiJY6H-x-2" value="Incluir patrimônio&amp;nbsp;" style="ellipse;whiteSpace=wrap;html=1;" parent="1" vertex="1">
          <mxGeometry x="250" y="250" width="90" height="70" as="geometry" />
        </mxCell>
        <mxCell id="XnEvQe8ai3ZGjiJY6H-x-3" value="Administrador&lt;br&gt;" style="shape=umlActor;html=1;verticalLabelPosition=bottom;verticalAlign=top;align=center;" parent="1" vertex="1">
          <mxGeometry x="50" y="415" width="30" height="55" as="geometry" />
        </mxCell>
        <mxCell id="XnEvQe8ai3ZGjiJY6H-x-4" value="" style="edgeStyle=none;html=1;endArrow=block;endFill=0;endSize=12;verticalAlign=bottom;rounded=0;entryX=0;entryY=0.5;entryDx=0;entryDy=0;exitX=0.744;exitY=0.472;exitDx=0;exitDy=0;exitPerimeter=0;" parent="1" source="XnEvQe8ai3ZGjiJY6H-x-3" target="XnEvQe8ai3ZGjiJY6H-x-2" edge="1">
          <mxGeometry width="160" relative="1" as="geometry">
            <mxPoint x="120" y="345" as="sourcePoint" />
            <mxPoint x="280" y="345" as="targetPoint" />
          </mxGeometry>
        </mxCell>
        <mxCell id="XnEvQe8ai3ZGjiJY6H-x-7" value="Alterar patrimônio&amp;nbsp;" style="ellipse;whiteSpace=wrap;html=1;" parent="1" vertex="1">
          <mxGeometry x="360" y="295" width="96" height="70" as="geometry" />
        </mxCell>
        <mxCell id="XnEvQe8ai3ZGjiJY6H-x-8" value="Excluir patrimônio&amp;nbsp;" style="ellipse;whiteSpace=wrap;html=1;" parent="1" vertex="1">
          <mxGeometry x="390" y="405" width="96" height="70" as="geometry" />
        </mxCell>
        <mxCell id="XnEvQe8ai3ZGjiJY6H-x-13" value="" style="edgeStyle=none;html=1;endArrow=block;endFill=0;endSize=12;verticalAlign=bottom;rounded=0;entryX=0;entryY=0.714;entryDx=0;entryDy=0;entryPerimeter=0;exitX=0.5;exitY=0.5;exitDx=0;exitDy=0;exitPerimeter=0;" parent="1" source="XnEvQe8ai3ZGjiJY6H-x-3" target="XnEvQe8ai3ZGjiJY6H-x-7" edge="1">
          <mxGeometry width="160" relative="1" as="geometry">
            <mxPoint x="130" y="424.5" as="sourcePoint" />
            <mxPoint x="290" y="424.5" as="targetPoint" />
          </mxGeometry>
        </mxCell>
        <mxCell id="XnEvQe8ai3ZGjiJY6H-x-14" value="" style="edgeStyle=none;html=1;endArrow=block;endFill=0;endSize=12;verticalAlign=bottom;rounded=0;exitX=0.744;exitY=0.55;exitDx=0;exitDy=0;exitPerimeter=0;" parent="1" source="XnEvQe8ai3ZGjiJY6H-x-3" target="XnEvQe8ai3ZGjiJY6H-x-8" edge="1">
          <mxGeometry width="160" relative="1" as="geometry">
            <mxPoint x="140" y="494.5" as="sourcePoint" />
            <mxPoint x="360" y="455" as="targetPoint" />
          </mxGeometry>
        </mxCell>
        <mxCell id="XnEvQe8ai3ZGjiJY6H-x-19" value="Consultar patrimônio&amp;nbsp;" style="ellipse;whiteSpace=wrap;html=1;" parent="1" vertex="1">
          <mxGeometry x="300" y="475" width="96" height="70" as="geometry" />
        </mxCell>
        <mxCell id="XnEvQe8ai3ZGjiJY6H-x-20" value="" style="edgeStyle=none;html=1;endArrow=block;endFill=0;endSize=12;verticalAlign=bottom;rounded=0;exitX=0.5;exitY=0.5;exitDx=0;exitDy=0;exitPerimeter=0;" parent="1" source="XnEvQe8ai3ZGjiJY6H-x-3" target="XnEvQe8ai3ZGjiJY6H-x-19" edge="1">
          <mxGeometry width="160" relative="1" as="geometry">
            <mxPoint x="80" y="435" as="sourcePoint" />
            <mxPoint x="400" y="450" as="targetPoint" />
          </mxGeometry>
        </mxCell>
        <mxCell id="XnEvQe8ai3ZGjiJY6H-x-22" value="Logar" style="ellipse;whiteSpace=wrap;html=1;" parent="1" vertex="1">
          <mxGeometry x="430" y="570" width="96" height="70" as="geometry" />
        </mxCell>
        <mxCell id="XnEvQe8ai3ZGjiJY6H-x-25" value="&amp;lt;&amp;lt;include&amp;gt;&amp;gt;" style="edgeStyle=none;html=1;endArrow=open;verticalAlign=bottom;dashed=1;labelBackgroundColor=none;rounded=0;exitX=0.5;exitY=0.5;exitDx=0;exitDy=0;exitPerimeter=0;entryX=0;entryY=0.5;entryDx=0;entryDy=0;" parent="1" source="XnEvQe8ai3ZGjiJY6H-x-3" target="XnEvQe8ai3ZGjiJY6H-x-22" edge="1">
          <mxGeometry width="160" relative="1" as="geometry">
            <mxPoint x="130" y="585" as="sourcePoint" />
            <mxPoint x="290" y="585" as="targetPoint" />
          </mxGeometry>
        </mxCell>
        <mxCell id="QimY8xbkl2on-bAjsN7t-3" value="Audio Visual&amp;nbsp;" style="text;html=1;strokeColor=none;fillColor=none;align=center;verticalAlign=middle;whiteSpace=wrap;rounded=0;fontSize=40;" parent="1" vertex="1">
          <mxGeometry x="18" y="60" width="330" height="30" as="geometry" />
        </mxCell>
        <mxCell id="IfJ1QCMbeDYxTQooLl67-1" value="Consutar&lt;br&gt;Calendário" style="ellipse;whiteSpace=wrap;html=1;" vertex="1" parent="1">
          <mxGeometry x="348" y="690" width="96" height="70" as="geometry" />
        </mxCell>
        <mxCell id="IfJ1QCMbeDYxTQooLl67-3" value="&amp;lt;&amp;lt;extend&amp;gt;&amp;gt;" style="edgeStyle=none;html=1;startArrow=open;endArrow=none;startSize=12;verticalAlign=bottom;dashed=1;labelBackgroundColor=none;rounded=0;entryX=0.5;entryY=0.5;entryDx=0;entryDy=0;entryPerimeter=0;" edge="1" parent="1" source="IfJ1QCMbeDYxTQooLl67-1" target="XnEvQe8ai3ZGjiJY6H-x-3">
          <mxGeometry width="160" relative="1" as="geometry">
            <mxPoint x="294" y="800" as="sourcePoint" />
            <mxPoint x="214" y="570" as="targetPoint" />
          </mxGeometry>
        </mxCell>
      </root>
    </mxGraphModel>
  </diagram>
</mxfile>
